<svg xmlns="http://www.w3.org/2000/svg" width="567.168" height="517.309" viewBox="0 0 567.168 517.309">
  <g id="bk5" transform="translate(-0.001 -0.001)">
    <rect id="Rectangle_17" data-name="Rectangle 17" width="495" height="45" transform="translate(13.551 186.031) rotate(-16.244)" fill="#336467"/>
    <path id="Path_4" data-name="Path 4" d="M386.4,575.969,316.354,335.556a7,7,0,0,1,4.763-8.679L784.835,191.769a7.006,7.006,0,0,1,8.679,4.762L855.57,409.52l-1.92.56L791.593,197.091a5.009,5.009,0,0,0-6.2-3.4L321.676,328.8a5,5,0,0,0-3.4,6.2L388.321,575.41Z" transform="translate(-316.071 -191.488)" fill="#89b2b5"/>
    <path id="Path_5" data-name="Path 5" d="M752.933,410.51a6.512,6.512,0,0,1-6.243-4.683L734.941,365.5a6.507,6.507,0,0,1,4.422-8.059L779.687,345.7a6.507,6.507,0,0,1,8.059,4.423l11.749,40.324a6.507,6.507,0,0,1-4.422,8.059L754.748,410.25a6.479,6.479,0,0,1-1.815.26Z" transform="translate(-316.071 -191.488)" fill="#316265"/>
    <path id="Path_6" data-name="Path 6" d="M385.318,336.3a11.694,11.694,0,0,0-.43-1.22,12,12,0,0,0-22.91,6.67,11.372,11.372,0,0,0,.29,1.26,12.019,12.019,0,0,0,11.53,8.64,11.747,11.747,0,0,0,3.35-.48A12.013,12.013,0,0,0,385.318,336.3Zm-8.73,12.95a10.013,10.013,0,0,1-12.4-6.8,11.429,11.429,0,0,1-.28-1.26,10,10,0,0,1,19.04-5.54,8.341,8.341,0,0,1,.45,1.21,10,10,0,0,1-6.81,12.39Z" transform="translate(-316.071 -191.488)" fill="#89b2b5"/>
    <path id="Path_7" data-name="Path 7" d="M355.885,344.87a11,11,0,0,1,4.208-12.057,11,11,0,1,0,5.817,19.967,11,11,0,0,1-10.026-7.91Z" transform="translate(-316.071 -191.488)" fill="#89b2b5"/>
    <path id="Path_8" data-name="Path 8" d="M666.747,394.43a6.042,6.042,0,0,0-7.45-4.2l-66.39,18.57-7.15,2h44.9l7.15-2,24.75-6.92a6.049,6.049,0,0,0,4.19-7.45Z" transform="translate(-316.071 -191.488)" fill="#89b2b5"/>
    <path id="Path_9" data-name="Path 9" d="M619.777,380.56a6.045,6.045,0,0,0-7.45-4.19l-99.62,27.86a6.068,6.068,0,0,0-4.37,6.57h25.79l7.16-2,74.3-20.78a6.055,6.055,0,0,0,4.19-7.46Z" transform="translate(-316.071 -191.488)" fill="#89b2b5"/>
    <path id="Path_10" data-name="Path 10" d="M876.241,408.8h-483a7.008,7.008,0,0,0-7,7v286a7.008,7.008,0,0,0,7,7h483a7.008,7.008,0,0,0,7-7v-286a7.008,7.008,0,0,0-7-7Zm5,293a5,5,0,0,1-5,5h-483a5,5,0,0,1-5-5v-286a5,5,0,0,1,5-5h483a5,5,0,0,1,5,5Z" transform="translate(-316.071 -191.488)" fill="#89b2b5"/>
    <path id="Path_11" data-name="Path 11" d="M440.237,447.8a12,12,0,1,1,12-12,12,12,0,0,1-12,12Zm0-22a10,10,0,1,0,10,10,10,10,0,0,0-10-10Z" transform="translate(-316.071 -191.488)" fill="#89b2b5"/>
    <path id="Path_12" data-name="Path 12" d="M421.585,435.8A11,11,0,0,1,429,425.4a11,11,0,1,0,0,20.8,11,11,0,0,1-7.413-10.4Z" transform="translate(-316.071 -191.488)" fill="#89b2b5"/>
    <path id="Path_13" data-name="Path 13" d="M488.881,577.578a9.01,9.01,0,0,1-9-9v-27a9,9,0,0,1,18,0v27a9.01,9.01,0,0,1-9,9Z" transform="translate(-316.071 -191.488)" fill="#89b2b5"/>
    <path id="Path_14" data-name="Path 14" d="M512.881,577.578a9.01,9.01,0,0,1-9-9v-27a9,9,0,0,1,18,0v27a9.01,9.01,0,0,1-9,9Z" transform="translate(-316.071 -191.488)" fill="#89b2b5"/>
    <path id="Path_15" data-name="Path 15" d="M536.881,577.578a9.01,9.01,0,0,1-9-9v-27a9,9,0,0,1,18,0v27a9.01,9.01,0,0,1-9,9Z" transform="translate(-316.071 -191.488)" fill="#89b2b5"/>
    <path id="Path_16" data-name="Path 16" d="M573.881,577.578a9.01,9.01,0,0,1-9-9v-27a9,9,0,0,1,18,0v27a9.01,9.01,0,0,1-9,9Z" transform="translate(-316.071 -191.488)" fill="#89b2b5"/>
    <path id="Path_17" data-name="Path 17" d="M597.881,577.578a9.01,9.01,0,0,1-9-9v-27a9,9,0,0,1,18,0v27a9.01,9.01,0,0,1-9,9Z" transform="translate(-316.071 -191.488)" fill="#89b2b5"/>
    <path id="Path_18" data-name="Path 18" d="M621.881,577.578a9.01,9.01,0,0,1-9-9v-27a9,9,0,0,1,18,0v27a9.01,9.01,0,0,1-9,9Z" transform="translate(-316.071 -191.488)" fill="#89b2b5"/>
    <path id="Path_19" data-name="Path 19" d="M658.881,577.578a9.01,9.01,0,0,1-9-9v-27a9,9,0,0,1,18,0v27a9.01,9.01,0,0,1-9,9Z" transform="translate(-316.071 -191.488)" fill="#89b2b5"/>
    <path id="Path_20" data-name="Path 20" d="M682.881,577.578a9.01,9.01,0,0,1-9-9v-27a9,9,0,0,1,18,0v27a9.01,9.01,0,0,1-9,9Z" transform="translate(-316.071 -191.488)" fill="#89b2b5"/>
    <path id="Path_21" data-name="Path 21" d="M706.881,577.578a9.01,9.01,0,0,1-9-9v-27a9,9,0,0,1,18,0v27a9.01,9.01,0,0,1-9,9Z" transform="translate(-316.071 -191.488)" fill="#89b2b5"/>
    <path id="Path_22" data-name="Path 22" d="M743.881,577.578a9.01,9.01,0,0,1-9-9v-27a9,9,0,0,1,18,0v27a9.01,9.01,0,0,1-9,9Z" transform="translate(-316.071 -191.488)" fill="#89b2b5"/>
    <path id="Path_23" data-name="Path 23" d="M767.881,577.578a9.01,9.01,0,0,1-9-9v-27a9,9,0,0,1,18,0v27a9.01,9.01,0,0,1-9,9Z" transform="translate(-316.071 -191.488)" fill="#89b2b5"/>
    <path id="Path_24" data-name="Path 24" d="M791.881,577.578a9.01,9.01,0,0,1-9-9v-27a9,9,0,0,1,18,0v27a9.01,9.01,0,0,1-9,9Z" transform="translate(-316.071 -191.488)" fill="#89b2b5"/>
    <path id="Path_25" data-name="Path 25" d="M549.9,677.745H420.459a6.047,6.047,0,1,1,0-12.095H549.9a6.047,6.047,0,0,1,0,12.095Z" transform="translate(-316.071 -191.488)" fill="#89b2b5"/>
    <path id="Path_26" data-name="Path 26" d="M508.4,651.745h-46.44a6.047,6.047,0,0,1,0-12.095H508.4a6.047,6.047,0,1,1,0,12.095Z" transform="translate(-316.071 -191.488)" fill="#89b2b5"/>
    <path id="Path_27" data-name="Path 27" d="M0,0H493V2H0Z" transform="translate(71.81 277.09)" fill="#89b2b5"/>
  </g>
</svg>
